<svg class="css-1c6rvg9 ej43va40" color="inherit" viewBox="0 0 24 24" height="24" width="24"><g id="iherbleaf" mask="url(#mask-2)" fill="#262626" fill-opacity="0.15" fill-rule="nonzero"><g transform="translate(15.375000, 16.062500) rotate(-6.000000) translate(-15.375000, -16.062500) translate(4.250000, 5.625000)" id="Combined-Shape"><path d="M22.0053227,0.0599552882 L22.0061835,0.0573773468 C22.0061835,0.0573773468 22.9591134,7.79377968 21.0971556,12.783815 C18.1479797,20.6877836 10.9902456,18.6838637 8.36301714,16.9205518 C8.63159358,16.6627576 10.9153541,13.4798592 10.9153541,13.4798592 C10.9153541,13.4798592 17.576394,15.4081594 17.6555896,13.6551593 C17.7287595,12.0310561 11.1796264,12.9376322 11.1796264,12.9376322 L13.2085836,10.4868692 C13.2085836,10.4868692 18.2134022,11.4071943 18.2134022,10.2625883 C18.2134022,8.50099495 13.5400001,9.74871862 13.5400001,9.74871862 L15.7170187,7.20085314 C15.7170187,7.20085314 18.5491227,7.82299635 18.8366373,6.77033692 C19.1732186,5.53722158 16.1284915,6.62683151 16.1284915,6.62683151 C16.1284915,6.62683151 19.7456652,3.81859394 18.9321885,2.96701394 C17.9491299,1.9384153 15.7462866,6.16280205 15.7462866,6.16280205 C15.7462866,6.16280205 16.0010899,3.52213067 15.0077014,3.58228264 C13.7078603,3.6604802 15.0989485,6.74541682 15.0989485,6.74541682 L13.1087283,9.262347 C13.1087283,9.262347 13.7199119,4.40206803 11.8269645,5.46847648 C10.896416,5.99265791 13.0622439,8.84300185 12.5173437,9.67739557 C11.9724434,10.5126486 10.4453453,12.3627513 10.4453453,12.3627513 C10.4453453,12.3627513 10.5891026,11.0041761 10.3351601,9.77020147 C10.0812177,8.53622682 9.23675138,7.0487546 8.70045933,7.49903504 C7.62012784,8.40732975 10.7104785,11.4123502 9.6817963,13.0519209 C9.01810261,14.1097363 7.95240509,15.29473 7.31539688,16.1170933 C5.27094486,15.0489663 1.80527587,7.70527035 7.18541278,3.93116405 C13.9187617,-0.792484022 22.0053227,0.0599552882 22.0053227,0.0599552882 Z M3.71802214,18.4827843 L3.71888297,18.4827843 C5.18744514,18.52575 6.67408456,16.9480498 7.31539688,16.1170933 C7.47895305,16.266614 8.11337879,16.7564228 8.36215632,16.9231297 C6.75672347,19.4907594 4.97654377,21.1002542 2.78403038,20.8493346 C0.847181091,20.6267723 0.214476991,19.818158 0.0337043905,18.8419775 C-0.11091369,18.0617205 0.207590415,17.3682543 1.03311862,17.2814636 C2.54300024,17.1233498 1.98863094,18.4329441 3.71802214,18.4827843 Z"></path></g></g><g id="iherblogo" mask="url(#mask-2)" fill="#FFFFFF" fill-rule="nonzero"><g transform="translate(3.625000, 9.375000)"><path d="M0.574577626,1.33613206 L0.574569297,1.33613206 C0.742494183,1.33613206 0.883733654,1.39600418 0.994506443,1.51414147 C1.10334696,1.62973299 1.15854179,1.78740161 1.15854179,1.98246177 L1.15854179,4.55800352 C1.15854179,4.77174676 1.10373008,4.93989448 0.995497568,5.05772729 C0.884366641,5.17846956 0.742794019,5.23962725 0.574569297,5.23962725 C0.404428956,5.23962725 0.263422691,5.17616906 0.155698235,5.05113874 C0.0528294589,4.93174125 0.000608001025,4.76583482 0.000608001025,4.55799506 L0.000608001025,2.0086553 C0.000608001025,1.79699266 0.0535207477,1.63114543 0.157938677,1.51586684 C0.265896339,1.39664697 0.406069725,1.33613206 0.574577626,1.33613206 Z M0.976124823,0.193470108 L0.975999891,0.19342782 C1.097167,0.295182525 1.15843351,0.440156126 1.15843351,0.624466535 C1.15843351,0.802568985 1.09935747,0.946028656 0.982712889,1.0505152 C0.871681907,1.15064603 0.737630175,1.20161218 0.584497204,1.20161218 C0.427932776,1.20161218 0.291540656,1.15162712 0.179118768,1.05335699 C0.0605419102,0.949657014 0.000516384432,0.805495353 0.000516384432,0.624601858 C0.000516384432,0.457469058 0.0612082127,0.317527794 0.180542989,0.208787021 C0.294663949,0.103869132 0.430822863,0.0505094421 0.58459715,0.0505094421 C0.731125397,0.0505094421 0.862761783,0.0986084369 0.976124823,0.193470108 Z" id="Combined-Shape"></path><path d="M5.11966846,0.00454179009 C4.93770958,0.00454179009 4.78751667,0.0693870501 4.6730459,0.197698963 C4.56283114,0.322052668 4.50682009,0.501660591 4.50682009,0.731456562 L4.50682009,1.96284834 L2.71438309,1.96284834 L2.71438309,0.731456562 C2.71438309,0.4988188 2.65692283,0.318128291 2.54295179,0.193791501 C2.42664036,0.0681437667 2.27484833,0.00442338215 2.09183169,0.00442338215 C1.9043425,0.00442338215 1.75260043,0.0698183932 1.64052002,0.1988915 C1.53325365,0.322940728 1.47899997,0.50214268 1.47899997,0.731338154 L1.47899997,4.50190353 C1.47899997,4.73164875 1.53386998,4.91159498 1.64242732,5.03698053 C1.75546553,5.16691632 1.90664124,5.23276805 2.09187333,5.23276805 C2.27259956,5.23276805 2.42380858,5.16853175 2.54171913,5.04131934 C2.65635648,4.91690643 2.71441641,4.73534477 2.71441641,4.50179358 L2.71441641,3.03241031 L4.5068534,3.03241031 L4.5068534,4.50179358 C4.5068534,4.73177562 4.56188999,4.91172185 4.67033072,5.03687058 C4.78336061,5.16680637 4.93454464,5.2326581 5.11956852,5.2326581 C5.30096104,5.2326581 5.45219505,5.16821881 5.5694393,5.04123476 C5.68410163,4.9168726 5.74216157,4.73531094 5.74216157,4.50166671 L5.74216157,0.731101338 C5.74216157,0.498438203 5.68472629,0.317722321 5.57083021,0.193436278 C5.45448547,0.0677885429 5.30272674,0.00406815835 5.11951855,0.00406815835 L5.11966846,0.00454179009 Z" id="Shape"></path><path d="M7.8364669,2.23004431 C8.02892005,2.23004431 8.17811351,2.28985723 8.2927925,2.41297611 C8.38755737,2.51444325 8.45103934,2.66471138 8.48217232,2.86098945 L7.19881542,2.86098945 C7.23548704,2.66861884 7.3019174,2.51908653 7.39726529,2.41536118 C7.5119526,2.29060996 7.65564907,2.23005276 7.83654186,2.23005276 L7.8364669,2.23004431 Z M9.36196646,3.53121219 C9.53817849,3.43955599 9.62744636,3.25106747 9.62744636,2.97094813 C9.62744636,2.70723674 9.56008318,2.44582585 9.42727244,2.19425128 C9.29295418,1.93898069 9.08933214,1.72884889 8.82206155,1.56962405 C8.55464938,1.41053453 8.23290023,1.32981415 7.86559265,1.32981415 C7.58529585,1.32981415 7.32517969,1.37636538 7.09193217,1.46848676 C6.8559778,1.56236733 6.65427971,1.69885785 6.49258475,1.87402548 C6.33147281,2.04852494 6.20745726,2.26006072 6.12420276,2.50242485 C6.04202268,2.74107604 6.00037044,3.00310434 6.00037044,3.28098239 C6.00037044,3.87598227 6.17215988,4.35572048 6.51073316,4.70667314 C6.85044749,5.06019694 7.32801147,5.23948347 7.93029062,5.23948347 C8.19188098,5.23948347 8.42786034,5.20384268 8.63154068,5.13377902 C8.83580404,5.06410441 9.00911765,4.97378452 9.14672577,4.86542435 C9.28530003,4.7564975 9.39190843,4.63897763 9.46359425,4.51569805 C9.53909465,4.38486574 9.57581625,4.26953641 9.57581625,4.16285086 C9.57581625,3.99633548 9.50466347,3.89836983 9.44530425,3.84553451 C9.36289096,3.77219771 9.25837308,3.73496687 9.13428257,3.73496687 C9.0178712,3.73496687 8.92257328,3.76580368 8.85131223,3.8266569 L8.84552373,3.83186685 C8.74105583,3.93171012 8.65221272,4.01410512 8.58159298,4.07663297 C8.51651189,4.1342046 8.4459921,4.18764887 8.37151614,4.23595085 C8.3025455,4.28111502 8.22978527,4.31484436 8.15586733,4.33618317 C8.0807917,4.35772495 7.99629622,4.36856774 7.90451305,4.36856774 C7.77181058,4.36856774 7.65387504,4.33652147 7.54394345,4.27066129 C7.43571094,4.20581603 7.35052417,4.11009167 7.28354411,3.97843896 C7.23368803,3.88016883 7.20133904,3.76891612 7.18656378,3.64634699 L8.76296052,3.64634699 C9.01872073,3.64634699 9.21481356,3.60843954 9.36205808,3.53091617 L9.36196646,3.53121219 Z" id="Shape"></path><path d="M12.242084,1.49056138 C12.0483565,1.38607483 11.8451009,1.33291813 11.6380891,1.33291813 C11.4202665,1.33291813 11.2410394,1.39147085 11.1057717,1.50632655 C11.0520261,1.55149072 10.9988551,1.60604295 10.946592,1.66936582 C10.9276441,1.61896633 10.9044484,1.57388673 10.8769301,1.53394097 C10.8138396,1.44225094 10.6880417,1.33291813 10.4469651,1.33291813 C10.2349477,1.33291813 9.87931703,1.42914149 9.87931703,2.07345827 L9.87931703,4.55484879 C9.87931703,4.76818606 9.9325546,4.93581787 10.0378137,5.05339694 C10.1467625,5.1748412 10.2866277,5.23641332 10.4535615,5.23641332 C10.6210783,5.23641332 10.7622844,5.1761014 10.8735153,5.05678003 C10.982106,4.93997906 11.0371425,4.77108705 11.0371425,4.55478113 L11.0371425,3.81090865 C11.0371425,3.5475102 11.0457795,3.32271273 11.0625953,3.14257197 C11.0787032,2.96756505 11.1079622,2.8162397 11.1492063,2.69299396 C11.186261,2.58328901 11.2361421,2.50162136 11.297367,2.45044376 C11.4004107,2.36378607 11.5687437,2.35462637 11.8106781,2.43405272 C11.9926703,2.49288455 12.0508052,2.50091092 12.0868272,2.50091092 C12.2083774,2.50091092 12.3210908,2.45271043 12.4226519,2.35684229 C12.5237634,2.25994231 12.5772508,2.1316304 12.5772508,1.98572645 C12.5772508,1.84145484 12.518991,1.63848672 12.2423921,1.49054446 L12.242084,1.49056138 Z" id="Shape"></path><path d="M15.3792943,3.27454608 C15.3792943,3.60279825 15.3093076,3.85464347 15.1708999,4.02281657 C15.0369231,4.18549215 14.8841982,4.26458865 14.7039967,4.26458865 C14.4840003,4.26458865 14.3121026,4.18711603 14.1781175,4.02766283 C14.0404594,3.86441212 13.9705393,3.61988282 13.9705393,3.30079881 C13.9705393,3.08001875 14.0047622,2.88852775 14.0721088,2.73178947 C14.13694,2.58154672 14.2251668,2.46632734 14.3344654,2.38919303 C14.443056,2.31260001 14.56389,2.27533534 14.7039801,2.27533534 C14.8379568,2.27533534 14.9513699,2.31169504 15.0506989,2.3866388 C15.1531679,2.46387461 15.2311419,2.57282682 15.2888271,2.71981336 C15.3488276,2.87170536 15.379311,3.05843468 15.379311,3.27450379 L15.3792943,3.27454608 Z M15.7798837,1.56836385 C15.5382991,1.41464498 15.2546541,1.3367241 14.9366446,1.3367241 C14.6608203,1.3367241 14.4239165,1.38874747 14.2322712,1.49145789 C14.1301937,1.54636535 14.0286908,1.61483051 13.9288121,1.69626979 L13.9288121,0.654136181 C13.9288121,0.457477516 13.880805,0.300155658 13.7866398,0.186923841 C13.6864945,0.0658686428 13.5453716,0.0045502478 13.3673523,0.0045502478 C13.1965706,0.0045502478 13.0547232,0.0709517263 12.9569682,0.196591003 C12.8644188,0.315684013 12.8193768,0.478055123 12.8193768,0.693041645 L12.8193768,4.58408709 C12.8193768,4.78571043 12.8683583,4.94459697 12.964764,5.05618799 C13.0646511,5.17197403 13.2038583,5.23316556 13.367294,5.23316556 C13.5290556,5.23316556 13.6652728,5.1749004 13.7719228,5.0599855 C13.8311488,4.99613825 13.8737422,4.91673727 13.8995198,4.8227552 C13.9097642,4.83297212 13.9195588,4.84267311 13.9291619,4.85157908 C13.9935434,4.91380245 14.0731332,4.97501089 14.1654161,5.03350441 C14.2604058,5.09399395 14.3757678,5.14289643 14.5085036,5.17920538 C14.6403565,5.21494766 14.7811712,5.23316556 14.9268249,5.23316556 C15.1672685,5.23316556 15.3921873,5.18284219 15.5961591,5.08354022 C15.7985818,4.98367159 15.9727616,4.84132833 16.1130766,4.66076469 C16.2526003,4.48280602 16.3599666,4.27032298 16.4324687,4.02895686 C16.5040712,3.79044099 16.540418,3.52674652 16.540418,3.2453416 C16.540418,2.86153074 16.4746789,2.52287559 16.3448915,2.23897565 C16.2124556,1.94841103 16.0223428,1.72283546 15.7797088,1.5684738 L15.7798837,1.56836385 Z" id="Shape"></path><path d="M16.0371348,0.409581506 L16.0829597,0.409581506 C16.1367053,0.409581506 16.1799484,0.391541211 16.1799484,0.347696444 C16.1799484,0.30901088 16.1519137,0.283206408 16.0906888,0.283206408 C16.0651694,0.283206408 16.0472542,0.285786009 16.0371348,0.288374069 L16.0371348,0.409581506 Z M16.0345528,0.649475983 L15.9376308,0.649475983 L15.9376308,0.226370599 C15.9759099,0.218606422 16.0294639,0.213540254 16.0983596,0.213540254 C16.177558,0.213540254 16.2131386,0.226370599 16.2437468,0.244402436 C16.2666926,0.262442731 16.2846078,0.296062127 16.2846078,0.337301919 C16.2846078,0.38375166 16.2488357,0.419823792 16.1979302,0.435385978 L16.1979302,0.440570554 C16.2387912,0.456005874 16.2616704,0.487011838 16.2743634,0.543720781 C16.2871814,0.608210817 16.2947273,0.634040662 16.3049717,0.649475983 L16.2003122,0.649475983 C16.1876775,0.634040662 16.1799484,0.595388929 16.167122,0.546325756 C16.1594512,0.499876014 16.1339318,0.479230745 16.0804444,0.479230745 L16.0344362,0.479230745 L16.0345528,0.649475983 Z M15.7768937,0.427596427 C15.7768937,0.616008825 15.9147433,0.765600336 16.1035485,0.765600336 C16.2872147,0.765600336 16.4222992,0.616008825 16.4222992,0.430201402 C16.4222992,0.2419497 16.2872231,0.0896432647 16.1009749,0.0896432647 C15.9147267,0.0896432647 15.7768937,0.241848208 15.7768937,0.4276218 L15.7768937,0.427596427 Z M16.5294657,0.427596427 C16.5294657,0.66750782 16.3432175,0.855894844 16.1009082,0.855894844 C15.861106,0.855894844 15.6697022,0.667634685 15.6697022,0.427596427 C15.6697022,0.192894984 15.861106,0.00451641696 16.1009082,0.00451641696 C16.3432258,0.00451641696 16.5294657,0.192776576 16.5294657,0.427596427 Z" id="Shape"></path></g></g></svg>